<svg width="165" height="14" viewBox="0 0 165 14" fill="none" xmlns="http://www.w3.org/2000/svg">
<path d="M8.73663 10.144C9.35529 10.144 9.93663 10.08 10.4806 9.952C11.0246 9.824 11.494 9.61067 11.8886 9.312C12.294 9.01333 12.6086 8.62933 12.8326 8.16C13.0673 7.68 13.1846 7.09333 13.1846 6.4C13.1846 5.70667 13.0673 5.12533 12.8326 4.656C12.6086 4.176 12.294 3.78667 11.8886 3.488C11.494 3.18933 11.0246 2.976 10.4806 2.848C9.93663 2.72 9.35529 2.656 8.73663 2.656H3.04063V10.144H8.73663ZM8.73663 3.552C9.21663 3.552 9.66996 3.6 10.0966 3.696C10.534 3.78133 10.9126 3.936 11.2326 4.16C11.5633 4.384 11.8246 4.67733 12.0166 5.04C12.2193 5.40267 12.3206 5.856 12.3206 6.4C12.3206 6.944 12.2246 7.40267 12.0326 7.776C11.8406 8.13867 11.5793 8.432 11.2486 8.656C10.918 8.86933 10.534 9.024 10.0966 9.12C9.66996 9.20533 9.21663 9.248 8.73663 9.248H3.90463V3.552H8.73663ZM8.73663 1.68C9.51529 1.68 10.2353 1.76533 10.8966 1.936C11.558 2.096 12.134 2.368 12.6246 2.752C13.1153 3.12533 13.4993 3.61067 13.7766 4.208C14.054 4.80533 14.1926 5.536 14.1926 6.4C14.1926 7.264 14.054 7.99467 13.7766 8.592C13.4993 9.18933 13.1153 9.68 12.6246 10.064C12.134 10.4373 11.558 10.7093 10.8966 10.88C10.2353 11.04 9.51529 11.12 8.73663 11.12H2.06463V1.68H8.73663ZM8.73663 12.016C9.66463 12.016 10.5126 11.9147 11.2806 11.712C12.0593 11.5093 12.726 11.184 13.2806 10.736C13.846 10.288 14.2833 9.70667 14.5926 8.992C14.9126 8.27733 15.0726 7.41333 15.0726 6.4C15.0726 5.38667 14.9126 4.52267 14.5926 3.808C14.2833 3.09333 13.846 2.512 13.2806 2.064C12.726 1.616 12.0593 1.29067 11.2806 1.088C10.5126 0.885333 9.66463 0.783999 8.73663 0.783999H1.18463V12.016H8.73663ZM0.784625 0.384H8.73663C9.34463 0.384 9.93129 0.416 10.4966 0.48C11.062 0.533333 11.6166 0.661333 12.1606 0.863999C12.7153 1.06667 13.2646 1.36533 13.8086 1.76C14.3633 2.15467 14.9286 2.688 15.5046 3.36C15.9846 3.84 16.358 4.496 16.6246 5.328C16.8913 6.14933 17.0246 7.04 17.0246 8C17.0246 9.07733 16.8593 9.99467 16.5286 10.752C16.198 11.5093 15.734 12.1227 15.1366 12.592C14.55 13.072 13.846 13.4187 13.0246 13.632C12.2033 13.856 11.3073 13.968 10.3366 13.968H2.43263L0.784625 12.416V0.384ZM5.85663 8.848H8.73663C9.16329 8.848 9.56863 8.81067 9.95263 8.736C10.3366 8.65067 10.6726 8.51733 10.9606 8.336C11.2593 8.144 11.494 7.89333 11.6646 7.584C11.8353 7.264 11.9206 6.86933 11.9206 6.4C11.9206 6.16533 11.894 5.93067 11.8406 5.696C11.3713 5.568 10.87 5.504 10.3366 5.504H5.85663V8.848ZM29.6668 5.92V6.88H21.5228V10.144H31.3308V11.12H20.5308V1.68H31.3148V2.656H21.5228V5.92H29.6668ZM32.2108 3.552V0.783999H19.6348V12.016H32.2268V9.248H22.4028V7.76H30.5468V5.04H22.4028V3.552H32.2108ZM19.2348 12.416V0.384H32.6108L34.1628 2.032V5.504H31.7148L32.4988 6.288V8.848L34.1788 10.496V13.968H20.8828L19.2348 12.416ZM43.4443 11.12C42.3136 9.53067 41.1883 7.95733 40.0683 6.4C38.9483 4.84267 37.8229 3.26933 36.6923 1.68H37.9723L43.8603 9.936C44.8309 8.56 45.7909 7.18933 46.7403 5.824C47.7003 4.448 48.6603 3.06667 49.6203 1.68H50.8203L44.2123 11.12H43.4443ZM49.1403 0.783999C48.2549 2.064 47.3749 3.33867 46.5003 4.608C45.6256 5.87733 44.7349 7.14667 43.8283 8.416L38.4043 0.783999H35.0122L43.0123 12.016H44.6923L52.5323 0.783999H49.1403ZM54.8043 2.032L46.4843 13.968H44.4203L42.8043 12.416L34.2282 0.384H38.9323L40.1963 2.032L44.0203 7.456C44.3509 6.99733 44.6816 6.528 45.0123 6.048C45.3536 5.55733 45.7163 5.03467 46.1003 4.48C46.4949 3.91467 46.9216 3.30133 47.3803 2.64C47.8389 1.968 48.3563 1.216 48.9323 0.384H53.2843L54.8043 2.032ZM56.4028 1.68H57.3628V11.12H56.4028V1.68ZM58.2428 0.783999H55.5228V12.016H58.2428V0.783999ZM55.1227 12.416V0.384H58.6428L60.1948 2.032V13.968H56.7708L55.1227 12.416ZM64.974 1.68V10.144H74.014V11.12H64.014V1.68H64.974ZM74.894 12.016V9.248H65.87V0.783999H63.134V12.016H74.894ZM62.734 0.384H66.27L67.822 2.032V8.848H75.294L76.846 10.496V13.968H64.382L62.734 12.416V0.384ZM81.3499 8.928C81.6912 9.25867 82.0699 9.50933 82.4859 9.68C82.9019 9.85067 83.3339 9.97333 83.7819 10.048C84.2299 10.112 84.6885 10.1493 85.1579 10.16C85.6272 10.16 86.0805 10.16 86.5179 10.16C86.6779 10.16 86.8912 10.1547 87.1579 10.144C87.4352 10.1333 87.7285 10.112 88.0379 10.08C88.3579 10.0373 88.6779 9.984 88.9979 9.92C89.3179 9.84533 89.6059 9.74933 89.8619 9.632C90.1285 9.51467 90.3419 9.376 90.5019 9.216C90.6725 9.04533 90.7579 8.84267 90.7579 8.608C90.7579 8.37333 90.6672 8.17067 90.4859 8C90.3152 7.81867 90.0912 7.664 89.8139 7.536C89.5365 7.408 89.2219 7.30133 88.8699 7.216C88.5285 7.12 88.1872 7.05067 87.8459 7.008C87.5045 6.95467 87.1845 6.91733 86.8859 6.896C86.5979 6.87467 86.3632 6.864 86.1819 6.864H86.1979C85.9419 6.85333 85.6272 6.82667 85.2539 6.784C84.8805 6.74133 84.4912 6.67733 84.0859 6.592C83.6805 6.50667 83.2752 6.4 82.8699 6.272C82.4645 6.13333 82.1019 5.968 81.7819 5.776C81.4619 5.584 81.2005 5.36 80.9979 5.104C80.7952 4.83733 80.6939 4.53333 80.6939 4.192C80.6939 3.81867 80.7899 3.49867 80.9819 3.232C81.1845 2.96533 81.4405 2.74133 81.7499 2.56C82.0699 2.368 82.4272 2.21867 82.8219 2.112C83.2165 1.99467 83.6165 1.904 84.0219 1.84C84.4272 1.776 84.8112 1.73333 85.1739 1.712C85.5472 1.69067 85.8619 1.68 86.1179 1.68C86.5339 1.68 86.9552 1.70133 87.3819 1.744C87.8192 1.776 88.2459 1.84 88.6619 1.936C89.0779 2.032 89.4832 2.16533 89.8779 2.336C90.2725 2.496 90.6352 2.704 90.9659 2.96L90.1179 3.568C89.8085 3.35467 89.4832 3.18933 89.1419 3.072C88.8005 2.944 88.4485 2.848 88.0859 2.784C87.7232 2.72 87.3552 2.68267 86.9819 2.672C86.6085 2.65067 86.2459 2.64 85.8939 2.64C85.6485 2.64 85.3125 2.656 84.8859 2.688C84.4699 2.72 84.0539 2.78933 83.6379 2.896C83.2325 2.992 82.8805 3.14667 82.5819 3.36C82.2832 3.56267 82.1339 3.84 82.1339 4.192C82.1339 4.53333 82.2779 4.81067 82.5659 5.024C82.8539 5.22667 83.2325 5.392 83.7019 5.52C84.1712 5.63733 84.7045 5.73333 85.3019 5.808C85.9099 5.872 86.5285 5.94133 87.1579 6.016C87.7872 6.09067 88.4005 6.18133 88.9979 6.288C89.6059 6.384 90.1445 6.528 90.6139 6.72C91.0832 6.90133 91.4619 7.14667 91.7499 7.456C92.0379 7.75467 92.1819 8.13867 92.1819 8.608C92.1819 8.93867 92.0805 9.232 91.8779 9.488C91.6859 9.744 91.4299 9.968 91.1099 10.16C90.7899 10.3413 90.4272 10.496 90.0219 10.624C89.6272 10.7413 89.2272 10.8373 88.8219 10.912C88.4272 10.9867 88.0485 11.04 87.6859 11.072C87.3232 11.104 87.0245 11.12 86.7899 11.12H85.5899C85.1525 11.12 84.6939 11.104 84.2139 11.072C83.7339 11.04 83.2645 10.9707 82.8059 10.864C82.3472 10.7467 81.9099 10.5867 81.4939 10.384C81.0779 10.1813 80.7099 9.904 80.3899 9.552L81.3499 8.928ZM79.0619 9.216C79.4885 9.90933 79.9952 10.448 80.5819 10.832C81.1685 11.2053 81.8032 11.4827 82.4859 11.664C83.1685 11.8347 83.8725 11.936 84.5979 11.968C85.3339 12 86.0645 12.016 86.7899 12.016C87.1099 12.016 87.4885 11.9947 87.9259 11.952C88.3632 11.8987 88.8165 11.8187 89.2859 11.712C89.7552 11.6053 90.2139 11.4667 90.6619 11.296C91.1205 11.1147 91.5259 10.9013 91.8779 10.656C92.2405 10.4 92.5285 10.1067 92.7419 9.776C92.9659 9.43467 93.0779 9.04533 93.0779 8.608C93.0779 8.08533 92.9605 7.64267 92.7259 7.28C92.5019 6.90667 92.2032 6.59733 91.8299 6.352C91.4672 6.096 91.0459 5.89333 90.5659 5.744C90.0965 5.584 89.6112 5.46133 89.1099 5.376C88.6085 5.29067 88.1179 5.22667 87.6379 5.184C87.1579 5.14133 86.7312 5.104 86.3579 5.072C86.2299 5.06133 85.9845 5.04 85.6219 5.008C85.2592 4.96533 84.8859 4.912 84.5019 4.848C84.1179 4.77333 83.7765 4.68267 83.4779 4.576C83.1792 4.46933 83.0299 4.34133 83.0299 4.192C83.0299 4.02133 83.1685 3.89333 83.4459 3.808C83.7232 3.72267 84.0379 3.65867 84.3899 3.616C84.7525 3.57333 85.0992 3.552 85.4299 3.552C85.7712 3.54133 86.0005 3.536 86.1179 3.536C86.4592 3.536 86.8059 3.552 87.1579 3.584C87.5099 3.60533 87.8512 3.65867 88.1819 3.744C88.5232 3.82933 88.8432 3.952 89.1419 4.112C89.4512 4.272 89.7339 4.48 89.9899 4.736L92.3259 3.168C91.9205 2.61333 91.4619 2.18133 90.9499 1.872C90.4379 1.552 89.8939 1.312 89.3179 1.152C88.7419 0.992 88.1392 0.890666 87.5099 0.848C86.8912 0.805333 86.2672 0.783999 85.6379 0.783999C85.3072 0.783999 84.9285 0.810666 84.5019 0.863999C84.0859 0.906666 83.6592 0.981333 83.2219 1.088C82.7952 1.19467 82.3739 1.33333 81.9579 1.504C81.5525 1.67467 81.1899 1.888 80.8699 2.144C80.5499 2.4 80.2939 2.69867 80.1019 3.04C79.9099 3.37067 79.8139 3.75467 79.8139 4.192C79.8139 4.69333 79.9365 5.12533 80.1819 5.488C80.4272 5.85067 80.7525 6.16 81.1579 6.416C81.5632 6.672 82.0219 6.88 82.5339 7.04C83.0459 7.2 83.5632 7.33333 84.0859 7.44C84.6192 7.536 85.1312 7.616 85.6219 7.68C86.1232 7.73333 86.5605 7.78133 86.9339 7.824C87.0405 7.83467 87.2485 7.856 87.5579 7.888C87.8779 7.92 88.2085 7.968 88.5499 8.032C88.8912 8.08533 89.1952 8.16 89.4619 8.256C89.7285 8.352 89.8619 8.46933 89.8619 8.608C89.8619 8.72533 89.7765 8.82667 89.6059 8.912C89.4352 8.98667 89.2165 9.05067 88.9499 9.104C88.6832 9.14667 88.3899 9.17867 88.0699 9.2C87.7499 9.22133 87.4352 9.23733 87.1259 9.248C86.8272 9.25867 86.5552 9.264 86.3099 9.264C86.0752 9.264 85.9099 9.264 85.8139 9.264C85.4085 9.264 85.0085 9.248 84.6139 9.216C84.2192 9.17333 83.8352 9.09867 83.4619 8.992C83.0885 8.87467 82.7365 8.71467 82.4059 8.512C82.0752 8.30933 81.7765 8.03733 81.5099 7.696L79.0619 9.216ZM81.3819 7.296L80.6139 6.512C80.2405 6.23467 79.9472 5.90933 79.7339 5.536C79.5205 5.152 79.4139 4.704 79.4139 4.192C79.4139 3.70133 79.5152 3.26933 79.7179 2.896C79.9312 2.512 80.2085 2.18133 80.5499 1.904C80.8912 1.62667 81.2805 1.392 81.7179 1.2C82.1552 0.997333 82.6032 0.837333 83.0619 0.719999C83.5205 0.602666 83.9739 0.517333 84.4219 0.464C84.8699 0.410666 85.2752 0.384 85.6379 0.384C86.2672 0.384 86.9019 0.405333 87.5419 0.447999C88.1819 0.479999 88.8059 0.575999 89.4139 0.735999C90.0325 0.896 90.6245 1.14133 91.1899 1.472C91.7552 1.80267 92.2832 2.26667 92.7739 2.864C93.1045 3.19467 93.3659 3.472 93.5579 3.696C93.7499 3.90933 93.8992 4.09067 94.0059 4.24C94.1232 4.38933 94.2085 4.512 94.2619 4.608C94.3152 4.69333 94.3685 4.77333 94.4219 4.848L92.3739 6.224C92.4272 6.27733 92.4859 6.32533 92.5499 6.368C92.6245 6.4 92.7259 6.46933 92.8539 6.576C92.9819 6.68267 93.1472 6.83733 93.3499 7.04C93.5632 7.232 93.8459 7.50933 94.1979 7.872C94.4539 8.13867 94.6565 8.48 94.8059 8.896C94.9552 9.312 95.0299 9.74933 95.0299 10.208C95.0299 10.688 94.9125 11.1147 94.6779 11.488C94.4432 11.8613 94.1392 12.1867 93.7659 12.464C93.3925 12.7413 92.9659 12.976 92.4859 13.168C92.0059 13.36 91.5205 13.5147 91.0299 13.632C90.5392 13.7493 90.0592 13.8347 89.5899 13.888C89.1312 13.9413 88.7312 13.968 88.3899 13.968C87.7605 13.968 87.1205 13.968 86.4699 13.968C85.8192 13.968 85.1792 13.9147 84.5499 13.808C83.9312 13.7013 83.3285 13.5253 82.7419 13.28C82.1552 13.0347 81.6165 12.6613 81.1259 12.16C80.7099 11.776 80.3579 11.44 80.0699 11.152C79.7925 10.8533 79.5525 10.5867 79.3499 10.352C79.1579 10.1067 78.9925 9.88267 78.8539 9.68C78.7259 9.47733 78.6032 9.28 78.4859 9.088L81.3819 7.296ZM108.632 5.92H116.776V6.88H108.632V11.12H107.64V1.68H118.424V2.656H108.632V5.92ZM109.512 3.552H119.32V0.783999H106.744V12.016H109.512V7.76H117.656V5.04H109.512V3.552ZM106.344 12.416V0.384H119.72L121.272 2.032V5.504H118.824L119.608 6.288V9.712H111.464V13.968H107.992L106.344 12.416ZM124.418 1.68H125.378V11.12H124.418V1.68ZM126.258 0.783999H123.538V12.016H126.258V0.783999ZM123.138 12.416V0.384H126.658L128.21 2.032V13.968H124.786L123.138 12.416ZM140.03 3.552C140.158 3.552 140.291 3.56267 140.43 3.584C140.568 3.60533 140.696 3.64267 140.814 3.696C140.931 3.74933 141.027 3.824 141.102 3.92C141.187 4.016 141.23 4.144 141.23 4.304C141.23 4.45333 141.187 4.576 141.102 4.672C141.016 4.768 140.91 4.84267 140.782 4.896C140.664 4.94933 140.531 4.98667 140.382 5.008C140.243 5.02933 140.12 5.04 140.014 5.04H134.094V3.552H140.03ZM140.014 5.92C140.27 5.92 140.52 5.89333 140.766 5.84C141.022 5.776 141.251 5.68 141.454 5.552C141.656 5.424 141.816 5.25867 141.934 5.056C142.062 4.84267 142.126 4.592 142.126 4.304C142.126 4.00533 142.067 3.74933 141.95 3.536C141.832 3.32267 141.672 3.152 141.47 3.024C141.278 2.896 141.054 2.80533 140.798 2.752C140.552 2.688 140.296 2.656 140.03 2.656H133.214V5.92H140.014ZM141.47 6.64C141.32 6.72533 141.155 6.78933 140.974 6.832C140.792 6.87467 140.622 6.91733 140.462 6.96C141.059 7.664 141.656 8.35733 142.254 9.04C142.862 9.72267 143.47 10.416 144.078 11.12H142.782L139.086 6.88H133.214V11.12H132.222V1.68H140.03C140.467 1.68 140.872 1.728 141.246 1.824C141.63 1.92 141.955 2.07467 142.222 2.288C142.499 2.50133 142.712 2.77333 142.862 3.104C143.022 3.43467 143.102 3.83467 143.102 4.304C143.102 4.89067 142.968 5.376 142.702 5.76C142.435 6.13333 142.03 6.42667 141.486 6.64H141.47ZM143.998 4.304C143.998 3.696 143.902 3.17333 143.71 2.736C143.518 2.288 143.246 1.92 142.894 1.632C142.542 1.344 142.12 1.13067 141.63 0.992C141.15 0.853333 140.616 0.783999 140.03 0.783999H131.358V12.016H134.094V7.76H138.67L142.35 12.016H146.03L141.998 7.392C143.331 6.80533 143.998 5.776 143.998 4.304ZM130.958 12.416V0.384H140.03C140.446 0.384 140.846 0.416 141.23 0.48C141.614 0.533333 141.998 0.650666 142.382 0.832C142.776 1.01333 143.182 1.27467 143.598 1.616C144.024 1.95733 144.478 2.41067 144.958 2.976C145.267 3.28533 145.507 3.70133 145.678 4.224C145.859 4.736 145.95 5.296 145.95 5.904C145.95 6.608 145.795 7.232 145.486 7.776C145.187 8.32 144.75 8.76267 144.174 9.104C144.504 9.488 144.851 9.888 145.214 10.304C145.576 10.72 145.939 11.1413 146.302 11.568C146.664 11.984 147.022 12.3947 147.374 12.8C147.736 13.216 148.078 13.6053 148.398 13.968H143.79L142.174 12.416L139.838 9.712H136.046V13.968H132.606L130.958 12.416ZM159.698 5.92V6.88H151.554V10.144H161.362V11.12H150.562V1.68H161.346V2.656H151.554V5.92H159.698ZM162.242 3.552V0.783999H149.666V12.016H162.258V9.248H152.434V7.76H160.578V5.04H152.434V3.552H162.242ZM149.266 12.416V0.384H162.642L164.194 2.032V5.504H161.746L162.53 6.288V8.848L164.21 10.496V13.968H150.914L149.266 12.416Z" fill="#EE95F1"/>
</svg>
