<svg width="95" height="30" viewBox="0 0 95 30" fill="none" xmlns="http://www.w3.org/2000/svg">
<path d="M8.096 10.144C8.71467 10.144 9.296 10.08 9.84 9.952C10.384 9.824 10.8533 9.61067 11.248 9.312C11.6533 9.01333 11.968 8.62933 12.192 8.16C12.4267 7.68 12.544 7.09333 12.544 6.4C12.544 5.70667 12.4267 5.12533 12.192 4.656C11.968 4.176 11.6533 3.78667 11.248 3.488C10.8533 3.18933 10.384 2.976 9.84 2.848C9.296 2.72 8.71467 2.656 8.096 2.656H2.4V10.144H8.096ZM8.096 3.552C8.576 3.552 9.02933 3.6 9.456 3.696C9.89333 3.78133 10.272 3.936 10.592 4.16C10.9227 4.384 11.184 4.67733 11.376 5.04C11.5787 5.40267 11.68 5.856 11.68 6.4C11.68 6.944 11.584 7.40267 11.392 7.776C11.2 8.13867 10.9387 8.432 10.608 8.656C10.2773 8.86933 9.89333 9.024 9.456 9.12C9.02933 9.20533 8.576 9.248 8.096 9.248H3.264V3.552H8.096ZM8.096 1.68C8.87467 1.68 9.59467 1.76533 10.256 1.936C10.9173 2.096 11.4933 2.368 11.984 2.752C12.4747 3.12533 12.8587 3.61067 13.136 4.208C13.4133 4.80533 13.552 5.536 13.552 6.4C13.552 7.264 13.4133 7.99467 13.136 8.592C12.8587 9.18933 12.4747 9.68 11.984 10.064C11.4933 10.4373 10.9173 10.7093 10.256 10.88C9.59467 11.04 8.87467 11.12 8.096 11.12H1.424V1.68H8.096ZM8.096 12.016C9.024 12.016 9.872 11.9147 10.64 11.712C11.4187 11.5093 12.0853 11.184 12.64 10.736C13.2053 10.288 13.6427 9.70667 13.952 8.992C14.272 8.27733 14.432 7.41333 14.432 6.4C14.432 5.38667 14.272 4.52267 13.952 3.808C13.6427 3.09333 13.2053 2.512 12.64 2.064C12.0853 1.616 11.4187 1.29067 10.64 1.088C9.872 0.885333 9.024 0.783999 8.096 0.783999H0.544V12.016H8.096ZM0.144 0.384H8.096C8.704 0.384 9.29067 0.416 9.856 0.48C10.4213 0.533333 10.976 0.661333 11.52 0.863999C12.0747 1.06667 12.624 1.36533 13.168 1.76C13.7227 2.15467 14.288 2.688 14.864 3.36C15.344 3.84 15.7173 4.496 15.984 5.328C16.2507 6.14933 16.384 7.04 16.384 8C16.384 9.07733 16.2187 9.99467 15.888 10.752C15.5573 11.5093 15.0933 12.1227 14.496 12.592C13.9093 13.072 13.2053 13.4187 12.384 13.632C11.5627 13.856 10.6667 13.968 9.696 13.968H1.792L0.144 12.416V0.384ZM5.216 8.848H8.096C8.52267 8.848 8.928 8.81067 9.312 8.736C9.696 8.65067 10.032 8.51733 10.32 8.336C10.6187 8.144 10.8533 7.89333 11.024 7.584C11.1947 7.264 11.28 6.86933 11.28 6.4C11.28 6.16533 11.2533 5.93067 11.2 5.696C10.7307 5.568 10.2293 5.504 9.696 5.504H5.216V8.848ZM29.0261 5.92V6.88H20.8821V10.144H30.6901V11.12H19.8901V1.68H30.6741V2.656H20.8821V5.92H29.0261ZM31.5701 3.552V0.783999H18.9941V12.016H31.5861V9.248H21.7621V7.76H29.9061V5.04H21.7621V3.552H31.5701ZM18.5941 12.416V0.384H31.9701L33.5221 2.032V5.504H31.0741L31.8581 6.288V8.848L33.5381 10.496V13.968H20.2421L18.5941 12.416ZM42.8036 11.12C41.673 9.53067 40.5476 7.95733 39.4276 6.4C38.3076 4.84267 37.1823 3.26933 36.0516 1.68H37.3316L43.2196 9.936C44.1903 8.56 45.1503 7.18933 46.0996 5.824C47.0596 4.448 48.0196 3.06667 48.9796 1.68H50.1796L43.5716 11.12H42.8036ZM48.4996 0.783999C47.6143 2.064 46.7343 3.33867 45.8596 4.608C44.985 5.87733 44.0943 7.14667 43.1876 8.416L37.7636 0.783999H34.3716L42.3716 12.016H44.0516L51.8916 0.783999H48.4996ZM54.1636 2.032L45.8436 13.968H43.7796L42.1636 12.416L33.5876 0.384H38.2916L39.5556 2.032L43.3796 7.456C43.7103 6.99733 44.041 6.528 44.3716 6.048C44.713 5.55733 45.0756 5.03467 45.4596 4.48C45.8543 3.91467 46.281 3.30133 46.7396 2.64C47.1983 1.968 47.7156 1.216 48.2916 0.384H52.6436L54.1636 2.032ZM55.7621 1.68H56.7221V11.12H55.7621V1.68ZM57.6021 0.783999H54.8821V12.016H57.6021V0.783999ZM54.4821 12.416V0.384H58.0021L59.5541 2.032V13.968H56.1301L54.4821 12.416ZM64.3334 1.68V10.144H73.3734V11.12H63.3734V1.68H64.3334ZM74.2534 12.016V9.248H65.2294V0.783999H62.4934V12.016H74.2534ZM62.0934 0.384H65.6294L67.1814 2.032V8.848H74.6534L76.2054 10.496V13.968H63.7414L62.0934 12.416V0.384ZM80.7093 8.928C81.0506 9.25867 81.4293 9.50933 81.8453 9.68C82.2613 9.85067 82.6933 9.97333 83.1413 10.048C83.5893 10.112 84.0479 10.1493 84.5173 10.16C84.9866 10.16 85.4399 10.16 85.8773 10.16C86.0373 10.16 86.2506 10.1547 86.5173 10.144C86.7946 10.1333 87.0879 10.112 87.3973 10.08C87.7173 10.0373 88.0373 9.984 88.3573 9.92C88.6773 9.84533 88.9653 9.74933 89.2213 9.632C89.4879 9.51467 89.7013 9.376 89.8613 9.216C90.0319 9.04533 90.1173 8.84267 90.1173 8.608C90.1173 8.37333 90.0266 8.17067 89.8453 8C89.6746 7.81867 89.4506 7.664 89.1733 7.536C88.8959 7.408 88.5813 7.30133 88.2293 7.216C87.8879 7.12 87.5466 7.05067 87.2053 7.008C86.8639 6.95467 86.5439 6.91733 86.2453 6.896C85.9573 6.87467 85.7226 6.864 85.5413 6.864H85.5573C85.3013 6.85333 84.9866 6.82667 84.6133 6.784C84.2399 6.74133 83.8506 6.67733 83.4453 6.592C83.0399 6.50667 82.6346 6.4 82.2293 6.272C81.8239 6.13333 81.4613 5.968 81.1413 5.776C80.8213 5.584 80.5599 5.36 80.3573 5.104C80.1546 4.83733 80.0533 4.53333 80.0533 4.192C80.0533 3.81867 80.1493 3.49867 80.3413 3.232C80.5439 2.96533 80.7999 2.74133 81.1093 2.56C81.4293 2.368 81.7866 2.21867 82.1813 2.112C82.5759 1.99467 82.9759 1.904 83.3813 1.84C83.7866 1.776 84.1706 1.73333 84.5333 1.712C84.9066 1.69067 85.2213 1.68 85.4773 1.68C85.8933 1.68 86.3146 1.70133 86.7413 1.744C87.1786 1.776 87.6053 1.84 88.0213 1.936C88.4373 2.032 88.8426 2.16533 89.2373 2.336C89.6319 2.496 89.9946 2.704 90.3253 2.96L89.4773 3.568C89.1679 3.35467 88.8426 3.18933 88.5013 3.072C88.1599 2.944 87.8079 2.848 87.4453 2.784C87.0826 2.72 86.7146 2.68267 86.3413 2.672C85.9679 2.65067 85.6053 2.64 85.2533 2.64C85.0079 2.64 84.6719 2.656 84.2453 2.688C83.8293 2.72 83.4133 2.78933 82.9973 2.896C82.5919 2.992 82.2399 3.14667 81.9413 3.36C81.6426 3.56267 81.4933 3.84 81.4933 4.192C81.4933 4.53333 81.6373 4.81067 81.9253 5.024C82.2133 5.22667 82.5919 5.392 83.0613 5.52C83.5306 5.63733 84.0639 5.73333 84.6613 5.808C85.2693 5.872 85.8879 5.94133 86.5173 6.016C87.1466 6.09067 87.7599 6.18133 88.3573 6.288C88.9653 6.384 89.5039 6.528 89.9733 6.72C90.4426 6.90133 90.8213 7.14667 91.1093 7.456C91.3973 7.75467 91.5413 8.13867 91.5413 8.608C91.5413 8.93867 91.4399 9.232 91.2373 9.488C91.0453 9.744 90.7893 9.968 90.4693 10.16C90.1493 10.3413 89.7866 10.496 89.3813 10.624C88.9866 10.7413 88.5866 10.8373 88.1813 10.912C87.7866 10.9867 87.4079 11.04 87.0453 11.072C86.6826 11.104 86.3839 11.12 86.1493 11.12H84.9493C84.5119 11.12 84.0533 11.104 83.5733 11.072C83.0933 11.04 82.6239 10.9707 82.1653 10.864C81.7066 10.7467 81.2693 10.5867 80.8533 10.384C80.4373 10.1813 80.0693 9.904 79.7493 9.552L80.7093 8.928ZM78.4213 9.216C78.8479 9.90933 79.3546 10.448 79.9413 10.832C80.5279 11.2053 81.1626 11.4827 81.8453 11.664C82.5279 11.8347 83.2319 11.936 83.9573 11.968C84.6933 12 85.4239 12.016 86.1493 12.016C86.4693 12.016 86.8479 11.9947 87.2853 11.952C87.7226 11.8987 88.1759 11.8187 88.6453 11.712C89.1146 11.6053 89.5733 11.4667 90.0213 11.296C90.4799 11.1147 90.8853 10.9013 91.2373 10.656C91.5999 10.4 91.8879 10.1067 92.1013 9.776C92.3253 9.43467 92.4373 9.04533 92.4373 8.608C92.4373 8.08533 92.3199 7.64267 92.0853 7.28C91.8613 6.90667 91.5626 6.59733 91.1893 6.352C90.8266 6.096 90.4053 5.89333 89.9253 5.744C89.4559 5.584 88.9706 5.46133 88.4693 5.376C87.9679 5.29067 87.4773 5.22667 86.9973 5.184C86.5173 5.14133 86.0906 5.104 85.7173 5.072C85.5893 5.06133 85.3439 5.04 84.9813 5.008C84.6186 4.96533 84.2453 4.912 83.8613 4.848C83.4773 4.77333 83.1359 4.68267 82.8373 4.576C82.5386 4.46933 82.3893 4.34133 82.3893 4.192C82.3893 4.02133 82.5279 3.89333 82.8053 3.808C83.0826 3.72267 83.3973 3.65867 83.7493 3.616C84.1119 3.57333 84.4586 3.552 84.7893 3.552C85.1306 3.54133 85.3599 3.536 85.4773 3.536C85.8186 3.536 86.1653 3.552 86.5173 3.584C86.8693 3.60533 87.2106 3.65867 87.5413 3.744C87.8826 3.82933 88.2026 3.952 88.5013 4.112C88.8106 4.272 89.0933 4.48 89.3493 4.736L91.6853 3.168C91.2799 2.61333 90.8213 2.18133 90.3093 1.872C89.7973 1.552 89.2533 1.312 88.6773 1.152C88.1013 0.992 87.4986 0.890666 86.8693 0.848C86.2506 0.805333 85.6266 0.783999 84.9973 0.783999C84.6666 0.783999 84.2879 0.810666 83.8613 0.863999C83.4453 0.906666 83.0186 0.981333 82.5813 1.088C82.1546 1.19467 81.7333 1.33333 81.3173 1.504C80.9119 1.67467 80.5493 1.888 80.2293 2.144C79.9093 2.4 79.6533 2.69867 79.4613 3.04C79.2693 3.37067 79.1733 3.75467 79.1733 4.192C79.1733 4.69333 79.2959 5.12533 79.5413 5.488C79.7866 5.85067 80.1119 6.16 80.5173 6.416C80.9226 6.672 81.3813 6.88 81.8932 7.04C82.4053 7.2 82.9226 7.33333 83.4453 7.44C83.9786 7.536 84.4906 7.616 84.9813 7.68C85.4826 7.73333 85.9199 7.78133 86.2933 7.824C86.3999 7.83467 86.6079 7.856 86.9173 7.888C87.2373 7.92 87.5679 7.968 87.9093 8.032C88.2506 8.08533 88.5546 8.16 88.8213 8.256C89.0879 8.352 89.2213 8.46933 89.2213 8.608C89.2213 8.72533 89.1359 8.82667 88.9653 8.912C88.7946 8.98667 88.5759 9.05067 88.3093 9.104C88.0426 9.14667 87.7493 9.17867 87.4293 9.2C87.1093 9.22133 86.7946 9.23733 86.4853 9.248C86.1866 9.25867 85.9146 9.264 85.6693 9.264C85.4346 9.264 85.2693 9.264 85.1733 9.264C84.7679 9.264 84.3679 9.248 83.9733 9.216C83.5786 9.17333 83.1946 9.09867 82.8213 8.992C82.4479 8.87467 82.0959 8.71467 81.7653 8.512C81.4346 8.30933 81.1359 8.03733 80.8693 7.696L78.4213 9.216ZM80.7413 7.296L79.9733 6.512C79.5999 6.23467 79.3066 5.90933 79.0933 5.536C78.8799 5.152 78.7733 4.704 78.7733 4.192C78.7733 3.70133 78.8746 3.26933 79.0773 2.896C79.2906 2.512 79.5679 2.18133 79.9093 1.904C80.2506 1.62667 80.6399 1.392 81.0773 1.2C81.5146 0.997333 81.9626 0.837333 82.4213 0.719999C82.8799 0.602666 83.3333 0.517333 83.7813 0.464C84.2293 0.410666 84.6346 0.384 84.9973 0.384C85.6266 0.384 86.2613 0.405333 86.9013 0.447999C87.5413 0.479999 88.1653 0.575999 88.7733 0.735999C89.3919 0.896 89.9839 1.14133 90.5493 1.472C91.1146 1.80267 91.6426 2.26667 92.1333 2.864C92.4639 3.19467 92.7253 3.472 92.9173 3.696C93.1093 3.90933 93.2586 4.09067 93.3653 4.24C93.4826 4.38933 93.5679 4.512 93.6213 4.608C93.6746 4.69333 93.7279 4.77333 93.7812 4.848L91.7333 6.224C91.7866 6.27733 91.8453 6.32533 91.9093 6.368C91.9839 6.4 92.0853 6.46933 92.2133 6.576C92.3413 6.68267 92.5066 6.83733 92.7093 7.04C92.9226 7.232 93.2053 7.50933 93.5573 7.872C93.8133 8.13867 94.0159 8.48 94.1653 8.896C94.3146 9.312 94.3893 9.74933 94.3893 10.208C94.3893 10.688 94.2719 11.1147 94.0373 11.488C93.8026 11.8613 93.4986 12.1867 93.1253 12.464C92.7519 12.7413 92.3253 12.976 91.8453 13.168C91.3653 13.36 90.8799 13.5147 90.3893 13.632C89.8986 13.7493 89.4186 13.8347 88.9493 13.888C88.4906 13.9413 88.0906 13.968 87.7493 13.968C87.1199 13.968 86.4799 13.968 85.8293 13.968C85.1786 13.968 84.5386 13.9147 83.9093 13.808C83.2906 13.7013 82.6879 13.5253 82.1013 13.28C81.5146 13.0347 80.9759 12.6613 80.4853 12.16C80.0693 11.776 79.7173 11.44 79.4293 11.152C79.1519 10.8533 78.9119 10.5867 78.7093 10.352C78.5173 10.1067 78.3519 9.88267 78.2133 9.68C78.0853 9.47733 77.9626 9.28 77.8453 9.088L80.7413 7.296ZM2.304 21.92H10.448V22.88H2.304V27.12H1.312V17.68H12.096V18.656H2.304V21.92ZM3.184 19.552H12.992V16.784H0.416V28.016H3.184V23.76H11.328V21.04H3.184V19.552ZM0.016 28.416V16.384H13.392L14.944 18.032V21.504H12.496L13.28 22.288V25.712H5.136V29.968H1.664L0.016 28.416ZM18.0903 17.68H19.0503V27.12H18.0903V17.68ZM19.9303 16.784H17.2103V28.016H19.9303V16.784ZM16.8102 28.416V16.384H20.3303L21.8823 18.032V29.968H18.4583L16.8102 28.416ZM33.7015 19.552C33.8295 19.552 33.9628 19.5627 34.1015 19.584C34.2402 19.6053 34.3682 19.6427 34.4855 19.696C34.6028 19.7493 34.6988 19.824 34.7735 19.92C34.8588 20.016 34.9015 20.144 34.9015 20.304C34.9015 20.4533 34.8588 20.576 34.7735 20.672C34.6882 20.768 34.5815 20.8427 34.4535 20.896C34.3362 20.9493 34.2028 20.9867 34.0535 21.008C33.9148 21.0293 33.7922 21.04 33.6855 21.04H27.7655V19.552H33.7015ZM33.6855 21.92C33.9415 21.92 34.1922 21.8933 34.4375 21.84C34.6935 21.776 34.9228 21.68 35.1255 21.552C35.3282 21.424 35.4882 21.2587 35.6055 21.056C35.7335 20.8427 35.7975 20.592 35.7975 20.304C35.7975 20.0053 35.7388 19.7493 35.6215 19.536C35.5042 19.3227 35.3442 19.152 35.1415 19.024C34.9495 18.896 34.7255 18.8053 34.4695 18.752C34.2242 18.688 33.9682 18.656 33.7015 18.656H26.8855V21.92H33.6855ZM35.1415 22.64C34.9922 22.7253 34.8268 22.7893 34.6455 22.832C34.4642 22.8747 34.2935 22.9173 34.1335 22.96C34.7308 23.664 35.3282 24.3573 35.9255 25.04C36.5335 25.7227 37.1415 26.416 37.7495 27.12H36.4535L32.7575 22.88H26.8855V27.12H25.8935V17.68H33.7015C34.1388 17.68 34.5442 17.728 34.9175 17.824C35.3015 17.92 35.6268 18.0747 35.8935 18.288C36.1708 18.5013 36.3842 18.7733 36.5335 19.104C36.6935 19.4347 36.7735 19.8347 36.7735 20.304C36.7735 20.8907 36.6402 21.376 36.3735 21.76C36.1068 22.1333 35.7015 22.4267 35.1575 22.64H35.1415ZM37.6695 20.304C37.6695 19.696 37.5735 19.1733 37.3815 18.736C37.1895 18.288 36.9175 17.92 36.5655 17.632C36.2135 17.344 35.7922 17.1307 35.3015 16.992C34.8215 16.8533 34.2882 16.784 33.7015 16.784H25.0295V28.016H27.7655V23.76H32.3415L36.0215 28.016H39.7015L35.6695 23.392C37.0028 22.8053 37.6695 21.776 37.6695 20.304ZM24.6295 28.416V16.384H33.7015C34.1175 16.384 34.5175 16.416 34.9015 16.48C35.2855 16.5333 35.6695 16.6507 36.0535 16.832C36.4482 17.0133 36.8535 17.2747 37.2695 17.616C37.6962 17.9573 38.1495 18.4107 38.6295 18.976C38.9388 19.2853 39.1788 19.7013 39.3495 20.224C39.5308 20.736 39.6215 21.296 39.6215 21.904C39.6215 22.608 39.4668 23.232 39.1575 23.776C38.8588 24.32 38.4215 24.7627 37.8455 25.104C38.1762 25.488 38.5228 25.888 38.8855 26.304C39.2482 26.72 39.6108 27.1413 39.9735 27.568C40.3362 27.984 40.6935 28.3947 41.0455 28.8C41.4082 29.216 41.7495 29.6053 42.0695 29.968H37.4615L35.8455 28.416L33.5095 25.712H29.7175V29.968H26.2775L24.6295 28.416ZM53.3699 21.92V22.88H45.2259V26.144H55.0339V27.12H44.2339V17.68H55.0179V18.656H45.2259V21.92H53.3699ZM55.9139 19.552V16.784H43.3379V28.016H55.9299V25.248H46.1059V23.76H54.2499V21.04H46.1059V19.552H55.9139ZM42.9379 28.416V16.384H56.3139L57.8659 18.032V21.504H55.4179L56.2019 22.288V24.848L57.8819 26.496V29.968H44.5859L42.9379 28.416Z" fill="#EE95F1"/>
</svg>
