<svg width="326" height="57" viewBox="0 0 326 57" fill="none" xmlns="http://www.w3.org/2000/svg">
<path d="M21.5 22.5C12.7 -3.50002 2.83333 11.6666 -1 22.5V57H328V22.5C322 -7.50004 315.167 9.99997 312.5 22.5C302.5 12.5 297.5 22.5 294.5 22.5C288.1 2.49996 278.833 14.1666 275 22.5C268.6 -6.30004 259.667 10.5 256 22.5C251.6 5.69996 241.833 15.5 237.5 22.5C232.3 -3.10004 222 11.8333 217.5 22.5C212.3 -15.1 203.667 6.83331 200 22.5C193.2 10.1 185.5 17.3333 182.5 22.5C172.5 -9.50004 167.5 22.5 161.5 22.5C154.3 9.69996 147.833 17.1666 145.5 22.5C136.3 -13.1 128.667 7.66664 126 22.5C118 -1.10004 111.333 12.6666 109 22.5C101 8.09996 88.3333 16.5 83 22.5C76.6 -11.1 67.3333 8.49997 63.5 22.5C58.3 2.89996 49 14.3333 45 22.5C37.4 -17.1 26.1667 5.99998 21.5 22.5Z" fill="#F2ADF5"/>
</svg>
